<?xml version="1.0" encoding="UTF-8" standalone="no"?>
<!-- Created with Inkscape (http://www.inkscape.org/) -->

<svg
   xmlns:dc="http://purl.org/dc/elements/1.1/"
   xmlns:cc="http://creativecommons.org/ns#"
   xmlns:rdf="http://www.w3.org/1999/02/22-rdf-syntax-ns#"
   xmlns:svg="http://www.w3.org/2000/svg"
   xmlns="http://www.w3.org/2000/svg"
   xmlns:sodipodi="http://sodipodi.sourceforge.net/DTD/sodipodi-0.dtd"
   xmlns:inkscape="http://www.inkscape.org/namespaces/inkscape"
   width="32px"
   height="32px"
   id="svg3149"
   version="1.1"
   inkscape:version="0.48.5 r10040"
   sodipodi:docname="New document 4">
  <defs
     id="defs3151" />
  <sodipodi:namedview
     id="base"
     pagecolor="#ffffff"
     bordercolor="#666666"
     borderopacity="1.0"
     inkscape:pageopacity="0.0"
     inkscape:pageshadow="2"
     inkscape:zoom="11.197802"
     inkscape:cx="28.98032"
     inkscape:cy="14.57416"
     inkscape:current-layer="layer1"
     showgrid="true"
     inkscape:grid-bbox="true"
     inkscape:document-units="px"
     inkscape:window-width="1301"
     inkscape:window-height="744"
     inkscape:window-x="65"
     inkscape:window-y="24"
     inkscape:window-maximized="1" />
  <metadata
     id="metadata3154">
    <rdf:RDF>
      <cc:Work
         rdf:about="">
        <dc:format>image/svg+xml</dc:format>
        <dc:type
           rdf:resource="http://purl.org/dc/dcmitype/StillImage" />
        <dc:title></dc:title>
      </cc:Work>
    </rdf:RDF>
  </metadata>
  <g
     id="layer1"
     inkscape:label="Layer 1"
     inkscape:groupmode="layer">
    <g
       transform="matrix(0.23431281,0,0,0.23431281,-4.6322826,-2.907647)"
       id="g3046"
       inkscape:export-xdpi="109.81863"
       inkscape:export-ydpi="109.81863">
      <path
         style="fill:none"
         inkscape:connector-curvature="0"
         d="M 91.446871,75.10392 z"
         id="path5140" />
      <path
         style="fill:#ffffff"
         inkscape:connector-curvature="0"
         d="m 43.464778,28.964231 c -3.699188,0.257766 -13.183317,5.863642 -13.579569,8.538065 -0.213015,1.438908 2.814318,-1.16038 4.346527,-0.787399 1.828738,0.445256 3.207331,2.018303 3.487122,0.455393 1.044907,-5.836202 7.423402,-8.322926 5.745645,-8.206027 z"
         id="path5142" />
      <path
         style="fill:#ee7000"
         inkscape:connector-curvature="0"
         d="m 50.550104,75.581397 -3.050752,12.187201 -4.576154,10.663663 2.61493,2.611639 10.677383,-4.134957 6.537051,-4.570118 3.486573,4.570118 5.447743,11.098877 6.755483,12.40454 7.8449,9.79323 9.587967,3.69973 8.062782,0.43518 6.5376,-8.48758 2.17911,-2.82913 5.22986,0 1.52535,-1.74098 0.87164,-2.39392 -1.30746,-3.0468 -0.21792,-2.17615 3.70452,-0.43535 0.87164,-3.26441 -1.96117,-3.26435 1.52535,-4.13495 3.05075,-2.17631 2.39699,-3.699576 -0.43583,-4.787782 -1.74328,-1.740982 -3.48658,-0.435228 -3.26869,-1.088155 -2.83281,-1.958646 0.87164,-3.0468 1.08953,-7.399254 3.70451,3.481963 7.62702,5.005446 8.06278,0.217614 1.74329,-1.741091 -3.9224,-3.481963 -4.14033,-6.0936 8.06278,-2.176145 7.62702,-4.787782 5.66552,-8.704908 1.30746,-9.358009 -3.05075,-11.098881 -4.35822,-6.746153 -8.71643,-7.181919 -9.37008,1.088154 -8.93432,2.611638 -4.5761,-0.217675 1.30746,2.176309 6.31917,1.08799 5.66552,0.435289 7.62702,3.0468 4.35821,8.487574 -0.43582,6.964036 -1.30746,5.658382 -3.48658,4.570118 -4.57615,0.652827 -6.31917,-3.264299 -6.31917,-7.399255 -8.93431,-7.399254 -7.8449,-2.176254 -7.191253,2.393973 -3.26869,1.740982 -5.22986,-3.2643 -11.331583,-1.523482 -6.537599,1.958646 -5.883401,4.570117 -4.5761,5.658383 -5.22986,6.310934 -5.447743,3.264355 -7.8449,-0.652827 -4.576154,-4.134955 0,-7.181371 1.961224,-6.528818 3.486574,-5.440718 4.358216,-4.13479 7.19125,-3.482128 7.409133,-0.217499 8.062783,0.217499 5.665517,-2.176145 -6.537051,-1.741091 -6.319167,-2.829137 -6.755483,-1.741036 -7.627016,1.08821 -10.241617,3.917236 -7.409133,5.222944 -5.22986,9.35801 -1.307465,9.575343 -0.217911,5.440609 1.525404,6.964036 3.26869,6.528818 5.8834,6.310935 7.8449,1.958646 6.973366,-0.870546 z"
         id="path5144" />
      <path
         style="fill:#000000"
         inkscape:connector-curvature="0"
         d="M 52.701497,20.001924 C 38.009461,20.01548 17.717218,29.820946 20.20943,54.01643 c 2.665861,25.878729 20.459086,27.666251 27.396779,27.360556 -1.425957,6.465703 -2.58469,12.309588 -7.908015,17.988825 -7.465113,7.963999 15.911525,5.118499 23.740508,-3.351342 -0.725216,3.869982 -1.50806,9.419481 1.612063,14.284261 0.58137,0.9066 0.946009,-2.41071 1.673751,-2.14382 0.679939,0.24921 -0.02169,7.63525 3.779206,9.84427 0.704307,0.40934 1.24199,-1.53216 1.694277,-2.26709 1.342041,-2.17993 0.552721,8.92334 6.147934,11.1631 0.815114,0.32621 0.97581,-1.24979 1.554546,-1.88094 6.211597,14.3375 32.414681,19.57877 31.233611,3.82773 -0.56403,-3.56725 2.6331,-5.63094 5.45296,-4.31651 2.81997,1.31422 7.33229,-4.31991 3.38449,-8.82565 3.63152,-1.40834 7.74556,-4.57989 4.79091,-6.76042 -4.14275,-2.88665 0.45099,-5.63972 3.10486,-8.35366 4.36003,-4.458323 1.55708,-12.681144 -2.44688,-11.544528 -3.32582,0.943814 -5.91742,-1.169545 -7.23625,-2.556919 0.4123,-2.374709 1.46877,-4.779879 1.3927,-7.787822 10.10935,13.776048 24.44849,7.804287 24.26683,5.088044 -0.15911,-2.384424 -4.49273,0.811986 -9.81189,-8.406896 11.08901,-1.243363 14.56416,-3.81071 20.43878,-17.643616 6.31423,-14.868757 -8.22633,-39.898455 -23.53085,-34.252695 -8.02931,2.961896 -11.91115,3.428343 -17.06241,3.548535 -1.34951,0.03123 0.84864,3.056953 4.43713,3.844133 5.23305,1.147921 12.22782,-0.888383 18.20946,4.953032 6.87622,6.71487 3.18751,26.816671 -5.85157,23.763011 -9.03969,-3.053496 -11.29866,-14.733198 -22.9963,-19.512364 -7.64019,-3.12155 -13.747513,0.40994 -17.066256,3.236419 -0.5744,-0.530504 -1.178162,-1.034314 -1.809475,-1.511463 -9.837133,-7.434378 -22.260877,-4.872959 -31.903726,9.294346 -8.042477,11.815646 -17.300051,10.027575 -20.072713,4.246695 -4.443065,-9.263611 7.047457,-26.95223 23.929852,-24.695463 3.661539,0.455217 13.249725,0.262305 13.422605,-3.400517 0.07079,-1.499444 -3.743149,0.416717 -9.701025,-4.164482 -2.601538,-2.000411 -6.876224,-3.084943 -11.773935,-3.080388 z m 29.946617,34.57266 c 9.685109,-0.08195 15.25074,5.194626 18.921276,4.912091 3.03896,-0.233948 5.44506,-2.422402 6.87513,-2.835283 8.50623,-2.455332 16.35662,4.118106 19.55517,12.334834 3.97196,10.204297 7.30376,13.667381 9.60224,14.189862 1.29923,0.295201 -4.17332,2.318564 -9.04299,-3.7825 -1.2275,-1.537916 -1.48166,2.637487 -3.91849,-0.312715 -3.26782,-3.956477 -3.72932,-9.269099 -5.13991,-13.323816 -0.87038,-2.502037 -3.36139,-5.218664 -3.90022,-4.54125 -0.72078,0.906055 2.16566,5.530506 1.65481,7.943689 -2.77639,-2.310936 -6.44155,-0.570504 -7.43987,-0.632631 -0.8779,-0.05483 -1.23304,-1.558223 -1.48808,-1.398734 -0.33623,0.210183 -0.0887,1.022076 -0.2724,2.437111 -0.0974,0.749639 -0.66139,1.281725 -0.45717,2.025602 0.56321,2.051067 5.04002,6.56065 6.30874,10.878802 1.26318,4.29845 5.13354,10.218566 9.91891,8.633012 3.72811,-1.23513 4.88498,6.293372 1.50109,9.109392 -3.384,2.81618 -7.40255,5.13832 -4.22754,8.16486 2.06791,1.97138 2.13833,4.89596 -2.06858,4.50531 -5.78022,-1.18053 -12.06316,2.59906 -16.16563,2.39446 -5.451911,-0.37556 -10.152156,-6.70938 -11.280539,-9.15055 -1.128054,-2.44062 -1.317124,1.22048 1.126737,4.59992 2.444026,3.37944 8.837172,9.2938 17.296762,5.91413 8.45958,-3.37938 11.27834,2.44024 9.02267,4.50541 -2.25594,2.0654 -11.28054,-0.37539 -15.22823,2.62849 -2.64627,2.01358 -3.56945,6.00743 -1.34073,9.22465 -16.108002,-1.63951 -20.520003,-15.30618 -22.806956,-30.72431 0.184773,-2.718326 -3.053166,2.16248 -3.46676,3.61001 -0.683781,2.39298 -3.537175,-11.378236 -2.895105,-14.156935 1.101326,-4.767311 -1.635882,-1.793943 -2.788249,0.513409 -1.009069,2.020498 -1.782583,-3.269843 -0.785368,-5.220036 2.581012,-5.04765 2.772607,-6.051341 3.627072,-16.94551 0.693879,-8.847054 5.31619,-7.753246 6.299958,-8.821808 0.597341,-0.648546 0.0808,-1.213012 -2.537326,-0.751615 -3.195916,0.563204 -8.837723,3.19169 -8.837723,13.142155 0,4.990298 -3.379772,10.498467 -4.383847,9.248793 -1.57584,-1.96128 -2.911295,6.857015 -3.709286,7.458527 -0.798266,0.601073 -0.866155,-2.654335 -2.520972,-0.501082 -1.991849,2.591989 -2.737098,4.76506 -8.092968,7.076545 -8.007901,3.455787 1.34967,-4.268319 1.883511,-11.360122 0.579285,-7.696168 2.950372,-23.327792 17.950408,-26.66245 4.147249,-0.922245 9.161531,-4.294169 13.250274,-4.328965 z m 30.553616,15.72712 c 1.63221,0.154703 3.5386,0.329168 4.32847,1.863315 1.36136,2.644511 0.5331,6.155068 -0.19134,11.156507 -0.38018,2.625468 -1.43715,0.527563 -2.55664,-3.710494 -1.28124,-4.850183 -4.93778,-5.446975 -5.32503,-7.750501 -0.27161,-1.616289 1.771,-1.745812 3.74457,-1.558827 z"
         id="path5146" />
      <path
         style="fill:#000000"
         inkscape:connector-curvature="0"
         d="m 93.25301,73.300788 c 0,1.555371 -1.26252,2.816213 -2.819898,2.816213 -1.557379,0 -2.819899,-1.26087 -2.819899,-2.816213 0,-1.555343 1.26252,-2.816213 2.819899,-2.816213 1.557378,0 2.819898,1.26087 2.819898,2.816213 z"
         id="path5148" />
      <path
         style="fill:#000000"
         inkscape:connector-curvature="0"
         d="m 87.022796,77.82609 c 1.050011,0.157129 0.753646,-0.251329 0.446507,-0.622038 -3.828162,-4.62039 1.206975,-8.534772 6.949218,-5.29753 0.792064,0.446551 2.352317,-0.989586 0.748542,-2.314723 -0.227269,-0.18772 -0.288852,-3.14224 -0.746951,-3.311224 -0.457955,-0.168972 -0.422688,2.619321 -1.043809,2.550883 -2.953171,-0.728894 -7.448648,-0.25853 -8.809185,2.9417 -0.706008,1.660743 -0.457829,4.506728 2.455716,6.052987 z"
         id="path5150" />
      <path
         style="fill:#000000"
         inkscape:connector-curvature="0"
         d="m 112.2133,95.306155 c 0,0 -7.17149,-8.07815 -14.127297,-5.167842 -6.955804,2.910197 -3.278459,10.884837 -2.056556,10.884837 -0.718905,-3.389155 -0.836299,-8.349267 4.041983,-9.669191 4.2299,-1.032668 9.19391,4.580271 10.9035,6.007984 1.56574,1.307575 3.0013,-0.814566 1.2382,-2.055678 z"
         id="path5152" />
      <path
         style="fill:#000000"
         inkscape:connector-curvature="0"
         d="m 105.72509,100.65171 c 0.17569,-0.886574 -2.11122,-6.481622 -6.11555,-5.406145 -4.993151,1.341218 -0.652223,5.962985 1.77786,4.306078 0.73301,-0.499907 0.92905,-0.868734 1.3399,-0.769287 1.15698,0.279933 1.40214,1.659374 1.46361,2.492764 0.0938,1.27333 1.41465,-0.0195 1.53429,-0.62341 z"
         id="path5154" />
      <path
         style="fill:none"
         inkscape:connector-curvature="0"
         d="M 94.170688,70.334633 z"
         id="path5156" />
      <path
         style="fill:#000000"
         inkscape:connector-curvature="0"
         d="m 117.22153,73.300788 c 0,1.555371 -1.26252,2.816213 -2.8199,2.816213 -1.55738,0 -2.8199,-1.26087 -2.8199,-2.816213 0,-1.555343 1.26252,-2.816213 2.8199,-2.816213 1.55738,0 2.8199,1.26087 2.8199,2.816213 z"
         id="path5158" />
      <path
         style="fill:#ffffff"
         inkscape:connector-curvature="0"
         d="m 92.844965,72.038142 c 0,0.595528 -0.4834,1.078286 -1.079697,1.078286 -0.596296,0 -1.079696,-0.482768 -1.079696,-1.078286 0,-0.595517 0.4834,-1.078285 1.079696,-1.078285 0.596297,0 1.079697,0.482768 1.079697,1.078285 z"
         id="path5160" />
      <path
         style="fill:#ffffff"
         inkscape:connector-curvature="0"
         d="m 116.84838,72.040168 c 0,-0.595528 -0.4834,-1.078286 -1.07969,-1.078286 -0.5963,0 -1.0797,0.482768 -1.0797,1.078286 0,0.595517 0.4834,1.078285 1.0797,1.078285 0.59629,0 1.07969,-0.482768 1.07969,-1.078285 z"
         id="path5162" />
      <path
         style="fill:#2e3436"
         inkscape:connector-curvature="0"
         d="m 54.133929,23.11376 c -1.217512,0.0065 -2.559938,0.108425 -4.05082,0.32863 3.616425,2.312802 -0.623519,2.205891 -1.949205,2.283385 -8.237859,0.482631 -14.343533,4.035453 -13.090017,3.737441 2.85065,-0.677524 7.663238,0.286245 4.301632,1.445659 -7.239546,2.497043 -13.17234,4.28687 -15.240312,18.875727 -1.173551,8.278471 4.606286,19.231914 4.433186,17.696851 -0.654144,-5.801625 1.767326,-8.711494 2.343976,-6.066159 1.451641,6.65889 4.875374,11.587335 7.665434,12.538997 -1.822757,-3.895777 -2.418725,-9.857988 0.279637,-6.95745 3.429111,3.686236 6.179766,5.426559 11.436408,5.203516 0,0 6.596873,-11.780521 16.691953,-15.0356 7.420659,-2.392985 -4.829602,-2.565755 2.701809,-4.332971 5.02235,-1.178326 11.113151,-0.902322 9.195557,-1.634564 -5.697897,-2.175212 -0.03567,-3.051356 3.836943,-2.599728 12.42594,1.449117 16.599751,12.29971 23.65873,6.702796 1.29583,-1.027455 3.02304,-3.353484 4.74986,-3.371924 1.72693,-0.01828 -0.87406,2.282013 2.45506,1.835928 5.01565,-0.672255 2.90855,0.838659 3.74221,1.00616 3.09922,0.622477 6.13147,3.121276 6.13147,3.121276 0,0 -12.40837,-20.997483 -23.21857,-13.888557 -1.798665,1.182937 -1.027512,1.796084 0.36701,1.132445 2.12802,-1.012856 7.17534,-0.134072 3.45321,0.396965 -5.062635,0.722253 -5.978898,4.383462 -5.978898,4.383462 -21.31141,-17.808262 -33.081504,-3.882166 -39.420977,4.858471 -4.174909,6.240685 -13.379797,11.398539 -19.467909,6.940985 -4.957094,-3.629267 -2.261047,3.249481 -4.25619,0.595475 -4.632958,-6.162752 -0.747993,-15.999885 1.681928,-19.750553 3.211173,-4.956326 6.104028,-8.065527 9.318494,-10.004525 3.214631,-1.939272 -2.835393,-3.460723 0.152255,-3.73316 2.987472,-0.272623 10.43151,-1.312679 17.921869,0.221676 1.264932,0.259062 4.774336,0.431167 6.616631,-0.558429 -5.466788,-0.813139 -7.939298,-5.414265 -16.461996,-5.372061 z"
         id="path5164" />
      <path
         style="fill:#2e3436"
         inkscape:connector-curvature="0"
         d="m 127.35592,60.746667 c 0,0 11.86339,7.2143 14.8715,-6.737372 0.45098,-2.091406 2.4707,0.552008 3.207,2.091022 0.71062,1.4849 2.04646,-2.24129 0.83367,-5.217237 -1.07422,-2.63595 -2.87919,-7.581464 -1.89487,-6.593031 2.25545,2.265988 2.51285,1.178217 1.66195,-1.559046 -0.8509,-2.737427 -2.80998,-7.124293 -9.77292,-10.394739 -3.26255,-1.532428 -6.25331,-2.328992 -9.54242,-2.493475 -3.28872,-0.164554 -6.87512,0.302984 -8.13797,-0.825542 2.79154,0 10.18125,-0.795357 13.55926,-2.389583 8.63192,-4.07376 31.84939,15.845117 17.56239,37.035237 -2.29178,3.399201 0.61759,-4.040721 -1.24594,-2.749776 -2.01172,1.393795 -3.64178,6.201719 -9.23233,7.676411 -1.93746,0.511285 1.2286,-1.278268 0.67154,-3.420331 -0.42519,-1.635607 -6.7703,1.978074 -12.54119,-4.422868 z"
         id="path5166" />
    </g>
  </g>
</svg>
